<svg width="100%" height="100%" id="svg" viewBox="0 0 1440 590" xmlns="http://www.w3.org/2000/svg" class="transition duration-300 ease-in-out delay-150"><defs><linearGradient id="gradient" x1="0%" y1="50%" x2="100%" y2="50%"><stop offset="5%" stop-color="#9900ef"></stop><stop offset="95%" stop-color="#8ED1FC"></stop></linearGradient></defs><path d="M 0,600 L 0,150 C 125.60765550239233,120.23923444976077 251.21531100478467,90.47846889952153 333,88 C 414.78468899521533,85.52153110047847 452.7464114832537,110.32535885167468 543,146 C 633.2535885167463,181.67464114832532 775.7990430622009,228.2200956937799 892,223 C 1008.2009569377991,217.7799043062201 1098.0574162679427,160.79425837320576 1185,140 C 1271.9425837320573,119.20574162679425 1355.9712918660287,134.60287081339712 1440,150 L 1440,600 L 0,600 Z" stroke="none" stroke-width="0" fill="url(#gradient)" fill-opacity="0.53" class="transition-all duration-300 ease-in-out delay-150 path-0"></path><defs><linearGradient id="gradient" x1="0%" y1="50%" x2="100%" y2="50%"><stop offset="5%" stop-color="#9900ef"></stop><stop offset="95%" stop-color="#8ED1FC"></stop></linearGradient></defs><path d="M 0,600 L 0,350 C 72.71770334928229,379.1004784688995 145.43540669856458,408.20095693779905 249,384 C 352.5645933014354,359.79904306220095 486.97607655502395,282.2966507177033 584,279 C 681.023923444976,275.7033492822967 740.6602870813397,346.6124401913875 844,385 C 947.3397129186603,423.3875598086125 1094.3827751196172,429.25358851674645 1201,418 C 1307.6172248803828,406.74641148325355 1373.8086124401914,378.37320574162675 1440,350 L 1440,600 L 0,600 Z" stroke="none" stroke-width="0" fill="url(#gradient)" fill-opacity="1" class="transition-all duration-300 ease-in-out delay-150 path-1"></path></svg>